<?xml version="1.0" encoding="UTF-8"?>
<svg id="_레이어_2" data-name="레이어 2" xmlns="http://www.w3.org/2000/svg" viewBox="0 0 1182.71 213.95">
  <defs>
    <style>
      .cls-1 {
        fill: #3e58ac;
      }
    </style>
  </defs>
  <g id="_레이어_2-2" data-name=" 레이어 2">
    <g id="_레이어_1-2" data-name=" 레이어 1-2">
      <g>
        <g>
          <g>
            <circle class="cls-1" cx="271.73" cy="106.98" r="73.44"/>
            <circle class="cls-1" cx="271.73" cy="106.98" r="73.44"/>
            <path class="cls-1" d="M350.52,31.34C331.16,11.98,304.42,0,274.87,0H106.98C47.89,0,0,47.9,0,106.98c0,29.54,11.97,56.28,31.33,75.64,19.36,19.36,46.11,31.33,75.65,31.33h167.89c59.09,0,106.98-47.89,106.98-106.97,0-29.54-11.97-56.28-31.33-75.64h0ZM274.87,195.95H106.98c-49.07,0-88.98-39.91-88.98-88.97S57.91,18,106.98,18h167.89c49.07,0,88.98,39.91,88.98,88.98s-39.91,88.97-88.98,88.97h0Z"/>
          </g>
          <circle class="cls-1" cx="271.73" cy="106.98" r="73.44"/>
          <polygon class="cls-1" points="532.88 186.45 501.05 186.45 428.97 77.53 428.97 186.45 397.13 186.45 397.13 27.51 428.97 27.51 501.05 136.65 501.05 27.51 532.88 27.51 532.88 186.45"/>
        </g>
        <g>
          <path class="cls-1" d="M581.37,180.89c-8.67-3.7-15.53-9.04-20.56-16.01-5.04-6.96-7.63-15.19-7.78-24.67h33.35c.44,6.37,2.7,11.41,6.78,15.12,4.07,3.71,9.67,5.56,16.78,5.56s12.97-1.74,17.12-5.22,6.22-8.04,6.22-13.67c0-4.59-1.41-8.37-4.22-11.34-2.82-2.96-6.34-5.3-10.56-7s-10.04-3.59-17.45-5.67c-10.08-2.96-18.27-5.89-24.56-8.78-6.3-2.89-11.71-7.26-16.23-13.12-4.52-5.85-6.78-13.67-6.78-23.45,0-9.19,2.3-17.19,6.89-24.01,4.59-6.81,11.04-12.04,19.34-15.67,8.3-3.63,17.78-5.45,28.45-5.45,16,0,29.01,3.89,39.01,11.67,10,7.78,15.52,18.64,16.56,32.57h-34.23c-.3-5.33-2.56-9.74-6.78-13.23-4.22-3.48-9.82-5.22-16.78-5.22-6.08,0-10.93,1.56-14.56,4.67s-5.45,7.63-5.45,13.56c0,4.15,1.37,7.6,4.11,10.34s6.15,4.97,10.23,6.67c4.07,1.71,9.82,3.67,17.23,5.89,10.08,2.97,18.3,5.93,24.67,8.89,6.37,2.97,11.85,7.41,16.45,13.34,4.59,5.93,6.89,13.71,6.89,23.34,0,8.3-2.15,16-6.45,23.12-4.3,7.11-10.6,12.78-18.9,17.01-8.3,4.22-18.16,6.34-29.57,6.34-10.82,0-20.56-1.85-29.23-5.56v-.02Z"/>
          <path class="cls-1" d="M823.94,66.07c-7.04-12.07-16.6-21.52-28.68-28.34-12.08-6.81-25.45-10.22-40.12-10.22s-27.86,3.41-40.01,10.22c-12.16,6.82-21.79,16.27-28.9,28.34-7.12,12.08-10.67,25.68-10.67,40.79s3.55,28.94,10.67,41.02c7.11,12.08,16.74,21.53,28.9,28.34,12.15,6.82,25.48,10.23,40.01,10.23s27.86-3.41,40.01-10.23c12.15-6.81,21.75-16.26,28.79-28.34s10.56-25.75,10.56-41.02-3.52-28.71-10.56-40.79ZM796.49,134.21c-4.01,7.85-9.56,13.89-16.68,18.12-7.11,4.22-15.33,6.33-24.67,6.33s-17.6-2.11-24.79-6.33c-7.19-4.23-12.78-10.27-16.78-18.12-4-7.86-6-16.97-6-27.35s2-19.45,6-27.23,9.59-13.74,16.78-17.89,15.45-6.23,24.79-6.23,17.56,2.08,24.67,6.23c7.12,4.15,12.67,10.11,16.68,17.89,4,7.78,6,16.86,6,27.23s-2,19.49-6,27.35Z"/>
          <path class="cls-1" d="M992.93,66.07c-7.04-12.07-16.6-21.52-28.67-28.34-12.08-6.81-25.46-10.22-40.13-10.22s-27.86,3.41-40.01,10.22c-12.16,6.82-21.79,16.27-28.9,28.34-7.11,12.08-10.67,25.68-10.67,40.79s3.56,28.94,10.67,41.02,16.74,21.53,28.9,28.34c12.15,6.82,25.49,10.23,40.01,10.23s27.86-3.41,40.01-10.23c12.15-6.81,21.75-16.26,28.79-28.34s10.56-25.75,10.56-41.02-3.52-28.71-10.56-40.79ZM965.48,134.21c-4,7.85-9.56,13.89-16.67,18.12-7.12,4.22-15.34,6.33-24.68,6.33s-17.6-2.11-24.79-6.33c-7.19-4.23-12.78-10.27-16.78-18.12-4-7.86-6-16.97-6-27.35s2-19.45,6-27.23,9.59-13.74,16.78-17.89,15.45-6.23,24.79-6.23,17.56,2.08,24.68,6.23c7.11,4.15,12.67,10.11,16.67,17.89s6,16.86,6,27.23-2,19.49-6,27.35Z"/>
          <polygon class="cls-1" points="1182.71 29.73 1182.71 184.89 1151.59 184.89 1151.59 83.97 1110.02 184.89 1086.46 184.89 1044.66 83.97 1044.66 184.89 1013.54 184.89 1013.54 29.73 1048.89 29.73 1098.24 145.1 1147.59 29.73 1182.71 29.73"/>
        </g>
      </g>
    </g>
  </g>
</svg>