<?xml version="1.0" encoding="UTF-8"?>
<svg id="_레이어_2" data-name="레이어 2" xmlns="http://www.w3.org/2000/svg" viewBox="0 0 1316.3 1177.52">
  <defs>
    <style>
      .cls-1 {
        fill: #3180ff;
      }

      .cls-1, .cls-2 {
        fill-rule: evenodd;
      }

      .cls-2 {
        fill: #727272;
      }
    </style>
  </defs>
  <g id="Layer_1" data-name="Layer 1">
    <g>
      <path id="Dobong-gu" class="cls-2" d="M926.21,38.76c-1.45,9.02-.28,18.1-2,27.51-2.07,11.33-9.02,22.1-11.5,33.51-.87,3.98-.98,9.2-1.5,14-.51,4.66-1.97,10.13-1.5,14,.78,6.46,5.76,14.04,8.5,21,2.29,5.8,7.39,15.95,8,21.51.54,4.86-.95,11.63-1.5,17.5-.55,5.88-1.48,11.9-2,17.5-1.14,12.35-.8,25.37-3,36.01-1.58,7.64-5.57,14.4-7,21.51-1.72,8.56-1.27,18.44-3,27.51-6.81.02-13.39.28-19.51,1-14.79-19.11-31.71-39.51-48.51-58.01-4.9-5.4-11.22-16.08-17.5-18.5-7.02-2.71-17.62.04-22.01-7-4.46-4.88-9.13-9.54-14-14-.15-1.02-1.35-.98-1.5-2-3.96-4.38-8.13-8.54-12.5-12.5-2.48-9.72,2.43-16.19,3.5-24.01,1.16-1.68.18-5.49.5-8v-12.5c-1.91-13.5,2.93-25.38,2.5-37.01-.46-12.38-5.24-23.8-6-36.51,11.76-1.32,7.56-21.18,9-35.51.84-8.33,5.45-13.91,6.5-19.5,10-4.51,22.6-6.41,38.01-5.5,2.18-.32,5.65.65,7-.5,3.45.61,7.95-.8,10.5,0,9.18,2.89,3.55,20.86,10,25,4.4,2.83,14.04,1.22,20.51,1.5,7.44.33,14.3.63,21,1,8.98,4.36,13.77,12.9,29.01,11Z"/>
      <path id="Dongdaemun-gu" class="cls-2" d="M905.2,436.35c17.31-12.86,45.85-14.5,69.02-21.51,4.73,50.79,10.27,100.75,15.5,151.03-6.55,14.95-12.34,30.67-19,45.51-22.85-9.49-47.14-17.55-71.52-25.51-2-7.84-4.22-15.45-7-22.51-1-1.5-4.1-.9-6.5-1-.69-1.14-3.48-.19-5-.5-4.93.31-9.94-.3-15-.5-5.11-.21-11.32-1.68-15-.5-4.97,1.59-4.48,8.52-9,11h-4.5c-.69-1.14-3.48-.19-5-.5-6.9-.6-9.07-5.93-13.5-9v-6c1.15-1.18.18-4.49.5-6.5v-10c-1.78-8.82,6.69-12.11,9.5-18,3.19-6.68,2.47-12.89,5.5-20,13.14-9.71,25.79-19.89,43.01-25.51,5.98-9.35,9.82-20.85,17-29.01,3.88-3.46,7.54-7.13,11-11.01Z"/>
      <path id="Dongjak-gu" class="cls-2" d="M511.61,788.43c12.88,1.81,26.07,2.35,40.51,1.5,5.67-.33,12.67.66,17.5-.5,1.86.03,3.16-.5,4.5-1,6.51,6.9,12.97,14.27,19.51,22.01,6.09,7.22,12.89,16.18,21.51,20.5,7.69,3.86,17.51,3.02,28.01,5.5,1.61,6.56,2.64,13.7,5,19.5,6.73,1.6,15.93.74,23.01,2,4.19,7.82,7.72,16.29,11.5,24.51-4.22,11.31-7.7,25.38-9.5,41.01-2.03,17.55-1.94,31.86,2,45.01-7.72,3.62-13.84,8.83-27.01,7h-9c-4.28-3.03-8.12-6.41-12.5-10-3.63-2.98-9.76-6.32-12-10.5-3.53-6.58-4.02-16.15-6-24.01-2.02-8.02-4.39-15.64-6.5-23.51-12.51-4.5-23.56-10.45-37.01-14h-23.51c-4.84.33-11-.66-15,.5h-20c-5.5.33-12.33-.66-17,.5-4.72,4.11-5.06,12.61-8.5,18-8.23,6.15-19.54,2.86-29.51,6-9.42,2.97-16.67,13.79-26.51,13.5,1.22-7.45,2.1-15.24,3.5-22.51,4.8-3.15,7.62-8.87,13.5-11.5,8.82-3.95,20.19-3.83,30.51-7,2.51-8.96,8.11-16.4,10-25.51,1.77-8.54-.23-17.05,1.5-26.51.64-3.48,3.33-7.24,5-11,6.6-14.86,14.54-28.64,22.51-39.51Z"/>
      <path id="Eunpyeong-gu" class="cls-2" d="M537.62,204.8c7.59.95,9.29-2.51,13-6.5,7.22-7.77,13.52-17.17,18-25.51,14.69,12.13,30.78,26.28,46.01,39.51,3.89,3.38,13.75,9.38,15,13.5.86,2.84-.67,6.79,0,9v14.5c.32,2.34-.65,5.99.5,7.5,1.95,14.46-6.11,18.9-9.5,28.01.63.2,1.02.64,1,1.5-5.14,9.6-10.14,17.47-17,25.01-3.04,3.33-7.59,6.39-9,10-2.79,7.12-1.88,15.11-4.5,24.01-1.15,1.35-.18,4.82-.5,7v21c-1.15,1.35-.18,4.82-.5,7v23.5c-9.91-2.62-14.44.35-20.51,4-2.97,1.78-6.64,3.61-8.5,5.5-6.81,6.92-9.35,18.97-12,28.01-9.57,3.93-19.01,7.99-29.51,11-2.98,8.35-6.45,16.23-11.5,22.51-1.07.93-3.66.34-5.5.5-3.17.33-7.66-.66-10,.5h-14c-5.34.33-12-.66-16.5.5-3.19-.35-4.3,1.37-5.5,3-2.04,1.62-3.88,3.46-5.5,5.5-1.88,1.46-3.54,3.12-5,5v.5c-2.04,1.62-3.88,3.46-5.5,5.5-1.87,6.29-2.35,13.99-3.5,21.01-7.33-4.54-13.73-10.5-21.01-16-7.05-5.33-15.88-9.71-21.51-16-3.17-3.54-4.18-8.45-8-11.5-9.87.03-11.73-7.94-16-13.5,10.75,5.09,25.47,6.21,41.51,6,5.74-6.74,14.38-14.34,20.01-22.51,5.51-7.98,9.42-16.8,8-31.01v-31.01c-.33-5.17.66-11.67-.5-16v-31.01c2.32-3.63,8.12-5.42,9.5-9.5,1.13-3.34.62-9,1-13.5,2.58-30.97,5.02-65.5,8-94.52,11.52.43,24.26.55,34.51,1,3.69.16,8,1.39,11.5,0,7.25-2.87,6.37-17.59,19-13.5.69,1.14,3.48.19,5,.5,3.16,0,6.33,0,9.5,0Z"/>
      <path id="Gangbuk-gu" class="cls-2" d="M771.17,62.27c.91,12.45,6.38,24.23,6.5,36.51.08,8.8-4,17.24-3,27.01-1.16,1.68-.18,5.49-.5,8v12.5c1.81,14.38-6.3,20.13-3.5,34.01,1.31,1.69,2.83,3.17,4,5,4.12,4.54,8.46,8.88,13,13,4.46,4.88,9.13,9.54,14,14,4.17,4.99,14.82,3.52,22.01,5.5,29.62,32.4,58.82,65.21,81.52,104.52-9.21,15.97-17.86,32.48-26.51,49.01-4.91,2.59-9,6-14,8.5-3.01.33-7.33-.66-9.5.5h-19.5c-2.18.32-5.65-.65-7,.5h-27.01c-3.18-1.99-7.06-3.27-9.5-6-4.27-15.57-7.57-32.11-12-47.51-12.75-10.67-26.53-20.35-39.51-30.51-4.32-3.38-8.38-8.01-13-10.5-6.85-3.7-15.08-4.15-22.5-8-4-4.84-7.51-10.17-11.5-15,1.26-2.9,3.69-4.64,4.5-8,1.16-2.01.17-6.16.5-9-.32-2.51.66-6.32-.5-8v-30.51c-.32-2.34.65-5.99-.5-7.5v-37.51c6.33-11.43,14.25-23.22,21-34.51,2.31-3.87,5.73-8.38,7-12,4.48-12.81,3.8-26.4,8.5-40.51,12.25-4.59,24.56-9.11,37.01-13.5Z"/>
      <path id="Gangdong-gu" class="cls-2" d="M1131.26,615.39c5.73-6.75,13.38-10.11,22-15.5,8.94-5.59,14.17-12.91,26.51-13,10.67-.33,22.67.67,32.51-.5,18.53-4.35,29.41-16.42,44.01-25.01,8.76-5.15,20-8.9,28.51-14v5c.33,2.51-.65,6.32.5,8-.26,11.09,11.03,10.65,17,15.5,1.51,1.15,5.16.18,7.5.5,1.09,7.08,1.48,14.85,4.5,20.01-1.93,10.42-10.93,19.75-9.5,32.01.44,3.77,5.06,8.25,6,13.5,1.15,6.41-.71,13.82.5,19.5.76,3.58,4.42,6.43,5,9.5-2.69,4.81-5.02,9.98-8,14.5-14.06,3.81-27.1,8.57-43.51,14-6.72,2.23-13.93,4.62-21.5,7-6.23,1.96-18.7,4.1-21.51,7.5-2.2,2.68-1.71,10.05-2,16-.27,5.52-.11,11.74-.5,16-.49,5.48-4.26,10-7,14.5-7.24,11.89-13.19,21.06-20.5,33.01-5.29-1.75-9.1-.55-13.5-2.5-4.65-2.06-6.66-7.55-11-9-6-2.01-12.98-.37-21.01-2-4.62-8.12-5.54-17.83-10.5-25.01-4.06-5.88-11.83-7.93-15.5-14,5.16-14.57,16.49-35.23,7-51.01-3.82-.68-7.89-1.11-12.5-1-3.3-2.87-5.49-6.85-8.5-10,4.04-21.13,4.61-45.73,18.5-57.01,2.37-1.96,4.54-4.13,6.5-6.5Z"/>
      <path id="Gangseo-gu" class="cls-2" d="M97.02,404.84c14.19,7.9,28.88,17.47,41.51,27.01,4.25,3.21,9.46,6.08,13,9.5,4.23,4.09,7.69,10.18,11.5,15,3.92,4.96,7.42,10.6,11.5,15,6.56,7.07,15.11,12.17,21.51,19.01,8.05,8.59,12.9,20.3,21.51,29.01,6.37,6.45,17.3,10.13,26.01,15,3.43,1.92,6.93,4.51,10.5,6.5,3.87,2.16,8.53,3.59,11.5,6,3.5,2.83,6.39,8.23,10,12.5,3.64,4.3,8.2,8.06,10.5,12,3.5,5.99,4.97,13.02,8.5,18.5,5.6,8.69,15.44,15.27,23.01,22.01,8.08,7.19,16.7,13.61,24.51,21.01,2.26,5.08,2.54,12.13,3,19v1h-18c-5.92-1.75-10.95-4.39-18.5-4.5-3.84,4.66-6.47,10.53-10,15.5-.17,10.5-1.5,19.84-1.5,30.51-5.51,8.16-10.33,17.01-15,26.01-8.67,1.71-16.36,9.03-25.01,9.5-3.35.18-9.66-1.73-13.5-2.5-10.7-2.13-20.23-4.97-25.01-12-1.98-2.91-3.27-7.98-5-12-3.73-8.71-7.11-16.43-10.5-24.51-1.85-4.41-2.89-9.52-5-12.5-1.99-2.82-7.87-7.55-10.5-8-6.06-1.05-14.35,2.88-20.01,2-3.3,5.2-6.06,10.94-9,16.5-8.57-.59-16.53-.89-25.01-1.5-6.74-.48-19.11-2.89-25.51-1.5-5.02,1.09-10.52,10.2-14,14-4.76,5.2-9.09,9.71-14,14-2.68-5.25-5.24-10.08-7.5-16-1.85-4.85-3.53-13.17-7-16.5-2.53-2.42-9.27-3.87-13.5-5.5-14.53-5.6-28.75-11.12-42.01-16.5-.5-13.67-5.64-22.7-10-32.51,4.06-5.3,11.85-4.42,15.5-10,1.67-2.55,1.63-7.86,2.5-12,2.52-12.02,6.03-25.2,9-35.51,5.5-2.55,11.03-4.79,17.5-7.5,4.73-1.98,13.79-4.07,16.5-8.5,3.11-5.1,2.57-13.7,3.5-21,.94-7.36,1.85-14.69,2.5-22.01,3.84-3.57,7.8-7.5,13-12,6.48-5.61,15.72-9.43,13-23.01,1.15-1.68.18-5.49.5-8,1.88-13.26-8.93-25.06-6-37.51,1.23-5.25,7.41-7.48,9.5-13Z"/>
      <path id="Geumcheon-gu" class="cls-2" d="M371.58,936.97c10.05-.95,14.11-7.9,22.01-11,8.71,3.96,17.79,18.69,29.01,11.5,1.94,4.73,4.91,8.43,7,13,4.37,1.96,8.92,3.75,13,6-.11,3.72-.8,6.86-.5,11-.83.7-.83,4.8,0,5.5,1.27,19.84,4.21,42.33,6.5,61.51.84,7.06.68,15.17,2.5,20.5,1.96,5.76,8.86,10.42,10.5,16,4.77,1.23,8.83,3.17,13.5,4.5,1.21,6.3,3.35,11.66,5,17.51-.61,2.56-3.16,3.18-4.5,5-16.37,3.46-20.53,19.15-25.01,34.51-8.09.66-14.72,8.75-23.01,10-10,1.51-19.74-2.56-31.51-1.5-6.95-26.87-16.13-59.13-24.01-88.02-2-7.35-3.83-24.81-9-28.51-3.04-2.17-9.42-1.81-13.5-2-2.89-34.11-17.08-56.93-26.51-84.52h7.5c3.01.83,9.49.83,12.5,0h8.5c1.85-.32,4.98.65,6-.5h8c1.85-.32,4.98.65,6-.5Z"/>
      <path id="Guro-gu" class="cls-1" d="M391.09,914.46c.32,1.68-.64,4.65.5,5.5v3c-7.01,3.32-11.12,9.55-20.5,10.5-1.85.32-4.98-.65-6,.5h-8c-1.85.32-4.98-.65-6,.5h-20c-3.07-.26-7.24.57-9.5-.5-2.02-8.38,1.5-17.85-2-24.51-1.38-2.63-7.67-5.57-10-7-3.66-2.24-8.24-5.89-11.5-6-2.82-.09-7.53,2.73-10,4-2.84,1.46-7.15,3.23-9.5,5-2.42,1.82-7.97,9.02-9,12-2.26,6.53.47,16.63-5,19.01-2.71,2.29-5.21,4.79-7.5,7.5-3.54,3.13-6.88,6.46-10,10-1.09,1.74-2.25,3.42-4,4.5-2.71,2.29-5.21,4.79-7.5,7.5-3.54,3.12-6.88,6.46-10,10-2.6,2.77-4.02,6.55-7.5,7.5-6.09,1.67-16.19.88-22.01,0-5.79-.87-10.36-4.83-15.5-5-10.37-.34-19.73,5.45-29.01,6-5.16.31-9.71-1.09-15.5-1.5,5.93-12.12,11.9-26.07,18-39.01,2.12-4.49,5.99-9.39,6-13.5.01-5.46-5.34-12.94-8.5-20.01-2.06-4.6-8.59-15.99-8.5-20,.04-2.09,2.84-6.57,4.5-10,8.83-18.24,18.6-35.63,21.51-57.01-.29-3.21-3.4-3.6-4.5-6,7.57.77,14.53,2.14,21.51,3.5,2.27,5.4,3.42,11.92,7,16,.54.83,4.46.83,5,0h10.5c4-.33,9.33.66,12.5-.5,5.63-2.19,10.71-8.44,16.5-13.5,2.24-1.96,5.2-3.9,8-6.5,4.36-4.04,6.29-8.4,13.5-7,.86,1.15,3.82.18,5.5.5h12.5c2.14,7.52,5.07,14.27,7,22,4.98,1.3,9.39,5.85,15.5,6.5,7.73.82,16.25-2,25.51-1,1.52-.31,4.31.64,5-.5,3.79-2.22,6.55-9.28,9-14.5,2.47-5.27,3.82-10.85,7-14.5,4.7,2.08,8.63,5.2,13.5,8,3.75,2.16,11.11,4.27,13.5,8,1.4,2.18,2.07,7.01,3,10.5,2.96,11.13,5.16,22.88,6.5,35.51,3.46,4.7,9.13,7.21,7.5,17,.32,1.68-.64,4.65.5,5.5v8.5c.32,1.68-.64,4.65.5,5.5,0,2.67,0,5.33,0,8Z"/>
      <path id="Gwanak-gu" class="cls-2" d="M656.15,1085c-4.47,4.48-9.49,9.33-15,14.5-4.91,4.6-9.78,10.63-15.5,14.5-5.58,3.78-12.69,6.81-20,11-6.59,3.78-13.67,10.27-20,11.5-4.6.9-10.12.33-15,.5-4.96.17-10.22.29-15.5.5-8.36.33-23.3,2.31-31.01,1-6.05-1.03-10.41-7.25-16.5-9.5-4.21-6.32-3.53-20.21-8.5-25.01-4.55-4.39-12.66-2.06-19.51-5,8.22-5.59-.9-17.21-2-25.51-3.93-2.24-8.58-3.75-13.5-5-1.83-5.16-8.37-9.9-10-15.5-1.57-5.39-1.63-13.36-2.5-20.51-.81-6.71-1.68-13.72-2.5-20.51-2.56-21.09-3.9-39.89-4-58.01-4.06-2.27-8.59-4.08-13-6-2.08-4.09-4.8-7.54-6.5-12,11.12-1.38,18.91-12.02,27.51-14.5,11.1-3.21,22.65.19,31.01-7,2.24-5.43,4.12-11.22,6.5-16.5h18c4.67-.33,10.66.66,14.5-.5h44.51c10.86,4.14,21.86,8.15,32.01,13,4.08,15.59,8.19,31.15,12,47.01,8.87,7.13,17.41,14.6,26.51,21.5,2.67,1.16,7.5.17,11,.5,1.85-.32,4.98.65,6-.5,9.9,1.4,14.09-5.57,20-6.5-1.59,13.63,1.81,20.66,6,29.01,7.52,14.96,15.39,32.31,24.01,43.51-3.74.93-8.18,1.16-11.5,2.5-12.72,12.29-25.22,24.8-37.51,37.51Z"/>
      <path id="Gwangjin-gu" class="cls-2" d="M930.71,745.42c2.32-14.52,7.2-26.48,7.5-43.01,8.82-11.86,18.26-21.81,24.01-37.01,5.83-15.42,6.25-33.64,11-51.01,2.18-7.97,6.81-15.68,10-23.51,3.38-8.28,5.76-16.75,10-23.51,13.06-2.38,26.5.72,38.01-2.5,10.37-2.9,19.27-13.59,34.51-10.5,3.65-.81,1.37,4.3,2,6.5-1.84,8.6-12.26,15.22-13,24.01-.45,5.3,4.15,11.84,5.5,17.5,2.05,8.55-.25,18.54,5.5,24.01h6.5c1.68,1.16,5.49.18,8,.5h8.5c-2.66,6.54-4.32,12.61-5.5,20.01-1.11,6.94-1.31,15.41-3.5,22.51-2.06,6.65-7.51,15.23-11.5,23.01-3.96,7.7-9.9,14.14-14.5,20-4.74,6.03-10.12,12.14-15.5,19.01-4.62,5.9-10.35,16.44-15.5,19.01-6.92,3.44-16.09,3.56-25.01,4h-17c-1.52.31-4.31-.64-5,.5-18.48.31-33.31-3.03-45.01-9.5Z"/>
      <path id="Gangnam-gu" class="cls-2" d="M771.67,759.43c3.34-3.51,7.16-6.17,11-9.5,3.58-3.11,6.84-7.93,11-9.5,3.15-1.19,8.47-1.3,12.5-2,10.12-1.75,17.62-2.17,29.01-1.5,15.99.94,26.06,3.17,37.01,8,26.45,11.67,47.61,32.77,78.52,36.01,1.09,2.58.23,7.11.5,10.5v10c.32,2.01-.65,5.32.5,6.5v18.5c.32,1.85-.65,4.98.5,6-1.12,9.71,2.51,13.06,5.5,19.01,1.99,3.96,3.23,8.58,5,11,2.12,2.89,7.29,6.04,11,9,3.91,3.12,7.42,6.66,11.5,9,4.02,2.3,9.2,4.09,14,6.5,4.64,2.33,9.21,5.75,13.5,7,12.21,3.56,27.74,3.45,39.51,7,2.56,3.27,5.93,5.74,8.5,9,1.39,4.28,2.25,9.09,4,13,9.59,7.08,20.69,12.66,30.01,20,.88,6.34,2.06,12.24,3,18,.98,6,1.04,12.71,3,18,1.09,2.95,4.38,6.84,6.5,10,9.5,14.19,19.08,27.8,25.01,44.51-5.54,1.96-14.25-.62-20.01,2-4.95,2.25-6.01,10.94-10,16-2.06,2.6-7.47,6.92-11,8-5.74,1.75-12.55.23-18,1.5-4.27.99-7.09,4.74-11,5.5-4.35.85-9.05-.96-15-.5-4.95-4.3-7.02-10.32-12.5-15-4.3-3.67-10.47-5.35-14.5-9-2.61-2.36-9.14-11.53-10.5-15.5v-8c-.31-1.52.64-4.31-.5-5,.39-4.39-.73-7.27-.5-11.5-4.39-2.85-7.59-7.5-13-9.5-14.95-5.53-33.72.52-46.01,6-4.54,7.3-8.53,15.15-14,21.51-16.33.34-28.28,5.06-40.51,9.5-12.76-17.58-15.14-45.54-21-70.02-4.96-5.38-10.13-10.54-15.5-15.5-6.78-3.23-14.98-5.02-20.01-10-2.29-2.71-4.79-5.21-7.5-7.5-.18-.66-.88-.79-1-1.5-2.12-2.54-4.46-4.88-7-7-7.23-7.58-6.81-23.21-8-38.51-.61-7.79.04-16.85-2-23.01-2.2-6.62-12.92-11.02-15.5-18-2.01-5.45-1.95-13.1-3-19.5-1.12-6.85-1.74-14.94-3.5-20.51-2.15-6.79-6.96-12.94-10-19-3.45-6.87-6.39-13.45-9.5-20Z"/>
      <path id="Jongno-gu" class="cls-2" d="M682.15,556.38c-13.64,8.69-29.51,15.17-47.51,19.51-6.42-5.75-13.26-11.08-19-17.5-1.62-2.04-3.46-3.88-5.5-5.5-4.5-4.67-9.11-12.79-9-20,.06-3.85,2.49-9.46,4-14.5,3.01-10.05,6.14-18.9,9-28.51,1.49-5,3.81-10.58,4-15,.28-6.57-2.04-13.58-3.5-19.5-1.44-5.88-3.26-11.5-5-18-5.43-2.73-11.85-4.49-16.5-8v-2c1.15-1.35.18-4.82.5-7v-21c1.15-1.35.18-4.82.5-7v-21.01c1.15-1.35.18-4.82.5-7v-11c.91-12.66.72-22.67,4.5-31.01,3.22-7.09,11.84-11.74,16.5-18.5,3.34-4.86,4.5-9.64,8-14.5,12.17-1.16,22.32-4.36,34.51-5.5,4.25,4.75,9.98,8.02,15.5,11.5,6.94,16.76,8.52,34.32,13.5,52.01,5.05,17.91,16.74,33.54,17,55.51-2.87,5.8-5.28,12.05-8,18-5.27,1.9-10.52,3.82-15.5,6-.8,6.73-2.85,14.78-2,21.51,9.85,8.85,27.45,6.85,42.51,11,7.67,2.12,13.38,6.38,20,8,11.16,22.18,19.41,47.28,35.01,65.02,13.18.99,26.72,1.62,39.51,3v3.5c-1.16,2.34-.17,6.83-.5,10v13h-13c-1.85.32-4.98-.65-6,.5h-9.5c-1.85.32-4.98-.65-6,.5h-9c-2.01.32-5.32-.65-6.5.5-12.73.94-23.14,4.2-35.51,5.5h-25.01c-4.96-3.88-8.29-9.38-14-12.5-1.68-.83-6.82-.83-8.5,0Z"/>
      <path id="Jung-gu" class="cls-2" d="M814.18,596.89c-3.85,7.49-7.14,15.53-13.5,20.5-2.88,2.46-5.54,5.13-8,8-.4.1-.5.5-1,.5-2.3,2.2-5.03,3.97-6.5,7-4.04,11.46-9.64,21.37-14.5,32.01-7.92-3.09-13.07-8.94-21.51-11.5-1.02-1.15-4.15-.18-6-.5h-9c-1.02-1.15-4.15-.18-6-.5-17.83,2.66-19.93-10.41-29.51-16-2.34-1.16-6.83-.17-10-.5-2.34.32-5.99-.65-7.5.5h-10c-2.68.33-6.66-.66-8.5.5-13.53,1.14-27.31,2.03-40.51,3.5-3.02-13.32-7.29-25.39-12-37.01,9.18-7.32,19.5-13.51,25.01-24.51,12.84-3.28,24.64-6.31,35.51-12,6.63-3.47,9.12-8.25,19.5-7,3.96,4.38,8.13,8.54,12.5,12.5,24.18,3.17,42.3-4.03,63.51-5.5,1.85-.32,4.98.65,6-.5h9c2.01-.32,5.32.65,6.5-.5h9c2.01-.32,5.32.65,6.5-.5h11.5v17.5c-1.15,1.02-.18,4.15-.5,6,0,2.66,0,5.33,0,8Z"/>
      <path id="Jungnang-gu" class="cls-2" d="M1082.24,348.33c4.66,7.84,18.32,6.68,27.01,10.5-2.29,12.07,11.31,15.83,13,24.51,1.77,9.06-4.66,14.91-5.5,24.01-4.32,4.18-9.53,7.47-13,12.5v1c-.83,3.84-.83,11.16,0,15,.72,3.94,3.44,5.9,4.5,9.5v10c-10.6,7.43-3.11,20.21-6.5,32.51-1.73,6.28-15.75,14.71-19,20.51-1.56,2.77-1.36,6.37-2.5,8.5-3.45,6.48-15.53,10.45-16.5,17.5-.5,3.64,2.66,6.18,4,9v7c-.73.27-2.58-.59-2.5.5-16.39-2.9-23.91,8.26-36.01,11-11.81,2.68-22.67-.27-36.51,2.5-4.69-63-16.18-119.18-15.5-187.54,11.81-5.23,23.04-11.49,35.01-17.5,6.03-3.03,10.49-5.94,19.5-5.5,1.68-.32,4.65.64,5.5-.5h8c1.68-.32,4.65.64,5.5-.5h8c1.68-.32,4.65.64,5.5-.5,8.12.79,12.5-2.16,18-4Z"/>
      <path id="Mapo-gu" class="cls-2" d="M365.08,457.86c6.63,6.04,6.58,18.76,20,18,5.97,13.41,17.59,19.24,29.01,28.01,7.36,5.65,15.37,10.77,22.01,16.5,12.67,10.95,22.25,25.91,33.51,36.01,5.59,5.02,12.53,8.95,18,14.5,2.29,2.71,4.79,5.21,7.5,7.5.5,0,.59.41,1,.5,2.46,2.88,5.13,5.54,8,8,2.29,2.71,4.79,5.21,7.5,7.5.5,0,.59.41,1,.5,2.29,2.71,4.79,5.21,7.5,7.5,2.2,2.3,3.97,5.03,7,6.5,13.15,1.68,33.15,3.43,48.01,5,5.67.6,11.95,2.38,16,1.5,6.44-1.4,9.31-9.63,16-10.5,1.58,5.92,4.99,11.41,7,17.5,1.62,4.9,5.11,15.43,5,20-.11,4.61-4.98,19.26-6.5,23.01-5.03,12.41-13.34,21.7-21.01,31.01-10.31,12.53-22.81,24.43-34.01,34.01-2.91-2.46-5.03-5.62-8-8-3.01-2.41-6-4.66-9-7-5.84-4.56-11.65-9.77-18-13.5-19.94-11.73-41.42-19.49-63.01-27.51-10.11-3.75-20.55-9.33-31.01-14.5-10.13-5.01-21.63-9.22-30.51-15-6.7-4.37-13.31-11.7-20-17.51-17.04-14.76-33.58-28.59-50.01-43.51-3.29-2.98-7.93-6.23-10-9-3.9-5.21-4.92-12.55-8-18-2.81-4.97-7.84-10.15-12-15-6.84-7.98-12.27-16.19-21.51-20.51v-.5c8.28-2.73,16.48-15.16,25.01-17,9.14-1.98,18.66.81,29.51-1,3.47-3.27,7.48-7.11,11.5-11.5,3.06-3.35,9.38-8.81,10.5-12.5.71-2.34-.16-4.92.5-7,1.97-6.22,8.13-8.59,11.51-14Z"/>
      <path id="Nowon-gu" class="cls-2" d="M1045.74,179.79c-.51,4.54-3.66,5.61-4.5,10-.78,4.05.26,18.51,1.5,23.01.89,3.21,6.79,14.64,9,16,5.97,3.67,16.05,1.4,23.51,3,8.11,1.74,14.93,5.57,22.01,7.5,2.74,11.23.24,20.77,3,30.51,2.14,7.55,9.8,12.58,7,24.01-3.18,4.49-5.31,10.03-9,14-4.6,1.66-8.75.51-12.5,2.5-3.12,1.65-7.98,9.4-8.5,14-.75,6.62,2.28,12.59,6,16.5-.71,1.29-1.61,2.39-1.5,4.5-5.88,1.45-10.19,4.48-18.5,3.5-1.68.32-4.65-.64-5.5.5h-8c-1.68.32-4.65-.64-5.5.5h-8c-1.68.32-4.65-.64-5.5.5-12.21.2-21.81,7.38-31.01,12-8.52,4.29-16.54,7.52-24.01,12-11.57-2.93-23.7-5.3-35.01-8.5-17.12-22.55-34.86-47.16-48.51-71.52,6.65-.52,14.09-.24,20-1.5,3.16-9.43,1.62-20.37,3.5-29.51,1.41-6.85,5.95-13.94,7.5-21.51,2.24-10.87,1.84-24.52,3-37.01.53-5.73,1.44-11.91,2-18,.54-5.88,1.73-12.74,1-17.5-1.04-6.77-5.28-14.02-8-21.01-2.59-6.65-7.23-14.54-8-21.01-.44-3.71.98-8.42,1.5-13,.48-4.25.18-9.03,1-13,2.14-10.39,9.01-21.35,11.5-33.01,2.17-10.12.41-21.71,3-30.51,5.76-9.17,15.74-8.55,26.51-14.5,3.54-1.96,8.98-6.14,12-9,3.12-2.95,5.65-8.4,8.5-9.5,3.23-1.24,10.3-1.73,14-1,3.07.6,6.52,4.83,10,7.5,7.92,6.08,13.11,9.77,20.51,15.5,3.42,2.65,6.88,6.66,10,8,8.43,3.62,15.58,1.68,25.51,5.5,4.3,15.44-2.01,19.56-8,28.51-3.22,4.82-8.42,10.66-8.5,15.5-.08,4.41,5.43,13.49,7.5,16.5,3.35,4.86,12.36,11.3,14,17,2.28,7.89-.46,15.08,1.5,26.01-3.29,4.75-15.67,6.8-18,12-1.81,4.02.29,9.41-.5,16,.32,2.51-.66,6.33.5,8.01Z"/>
      <path id="Seocho-gu" class="cls-2" d="M768.67,762.43c4.84,12.35,15.34,23.65,19.51,37.51,1.78,5.94,2.39,13.45,3.5,20.01,1.16,6.83.61,14.92,3,20.5,2.94,6.89,13.41,11.09,15.5,17.5,2.1,6.46.89,15.96,1.5,24.01,1.28,16.72,2.03,32.6,11,41.01,2.12,2.54,4.46,4.88,7,7,2.29,2.71,4.79,5.21,7.5,7.5,5.15,4.35,13.15,5.85,19,9.5,4.79,5.21,9.79,10.21,15,15,6.2,24.98,8.59,53.76,22.51,71.02,12.58-3.77,27.58-9.42,44.51-10.5,2.5-3.24,4.85-6.38,7.5-10.5,2.12-3.3,3.47-8.53,7-11,7.92-5.55,30.47-10.37,42.51-5.5,3.74,1.51,5.68,5.7,9,7,1.17.83,1.08,2.92,1,5,.31,1.52-.64,4.31.5,5v6.5c.32,2.51-.66,6.32.5,8v2c3.57,5.44,8.08,9.92,11.5,15.5,10.91,5.42,19.61,13.07,26.01,23.01-5.48,3.37-17.68,2.81-21,8-2.54,3.95.25,8.76-.5,14-.79,5.53-5.76,10.55-5.5,15.5-6.29,1.72-15.84.16-19.5,4.5-2.89,8.22-3.17,16.15-10.5,20.01-4.59,2.41-14.23,3.56-20.51,5-5.93,1.37-17.13,2.23-20,5.5-3.43,3.9-2.93,13.34-4,19-1.34,7.07-2.83,12.83-4.5,18.51h-20c-8.26-.58-14.83-2.84-23.01-3.5-9.99-6.31-21.67-14.54-32.51-21.51-3.9-2.5-12.4-4.85-11-10.5.83-1.85.83-7.15,0-9-2.58-16.59-7.61-30.73-11.5-46.01v-28.01c1.16-1.84.17-5.83.5-8.5-.33-3.67.66-8.66-.5-11.5.69-8.93-8.21-7.64-15-9-6.04-1.21-10.39-3.74-15.5-3-4.66.67-11.44,6.84-16.5,10-5.42,3.39-12.39,6.39-16.5,10-7.13,6.27-11.4,16.11-17,20.51-4.72.82-12.78.82-17.5,0-5.65-5.11-1.15-14.55-2.5-22.01-.73-4.05-7.22-10.97-10-12-2.21-.82-8.77-1.68-13,0-4.18,1.65-4.14,6.66-8,9.5-12.28-15.39-19.41-35.94-29.01-54.01-.33-6.67.66-14.67-.5-20.51-4.7-15.22-4.1-29.43-1.5-47.51,1.39-9.66,2.53-19.49,4.5-27.01,1.07-4.08,4.16-8.1,4-12-.2-4.84-4.22-9.57-6-13.5-2.22-4.88-3.71-9.04-6-13.5-7.08-1.09-14.93-1.41-23.01-1.5-1.56-5.44-2.92-11.08-4-17,19.89-.51,35.94,1.27,50.01-4.5,6.56-2.69,13.35-10.82,19-16,18.93-17.37,37.21-35.46,53.01-53.51Z"/>
      <path id="Seodaemun-gu" class="cls-2" d="M614.14,561.88c5.39,5.94,12.34,10.33,17.5,16.5-9.04,16.14-28.06,22.29-41.51,34.01-13.57-1.49-30.17-3.4-45.51-5-8.97-.94-16.81-.16-20.5-6-2.46-2.88-5.12-5.54-8-8-2.29-2.71-4.79-5.21-7.5-7.5-.41-.09-.5-.5-1-.5-2.46-2.88-5.13-5.54-8-8-2.29-2.71-4.79-5.21-7.5-7.5-13.18-8.72-25.48-21.9-36.51-34.01-4.07-4.47-14.52-11.84-15.5-17-.5-2.62,1.69-16.67,3-20,.92-2.34,2.95-3.67,4.5-5,1.88-1.46,3.54-3.12,5-5v-.5c2.04-1.62,3.88-3.46,5.5-5.5,1.28-1.56,2.11-3.56,5.5-3h16.5c3.17-.33,7.66.66,10-.5,6.49.15,12.59-.08,18.5-.5,6.33-6.18,10.39-14.62,13.5-24.01,10.89-2.61,19.73-7.27,29.51-11,2.5-10.67,6.46-19.88,11.5-28.01,8.28-3.82,13.49-11.91,27.01-9v1.5c-1.16,2.67-.17,7.5-.5,11v11.5c4.39,4.45,11.7,5.97,17.5,9,2.95,11.22,5.78,22.56,8,34.51-4.3,13.22-8.54,28.99-13,44.01-1.53,5.14-4.42,10.3-4.5,14.5-.11,6.35,4.34,11.71,5.5,18,1.62,2.04,3.46,3.88,5.5,5.5,1.62,2.04,3.46,3.87,5.5,5.5Z"/>
      <path id="Seongbuk-gu" class="cls-2" d="M691.65,266.31c4.78,3.43,6.59,11.53,11.5,15,6.43,4.55,15.8,4.11,23,8,4.41,2.38,8.69,6.69,13,10,13.13,10.09,26.32,20.6,38.51,30.51,3.72,15.95,7.82,31.52,11.5,47.51,6.19,3.31,10.23,8.77,21,7.5h10.5c2.01-.32,5.32.65,6.5-.5h20c2.01-.32,5.32.65,6.5-.5,14.43,1.93,18.87-6.14,27.51-10,8.35-16.49,17.17-32.51,26.01-48.51,5.18,6.52,9.94,14.06,15.5,22.01,3.65,5.21,11.02,18.61,16.5,21.51,9.67,5.11,23.43,3.5,34.51,9v7c-1.17,7.84-.17,17.84-.5,26.51-24.07,7.94-54.93,9.09-72.02,24.01-3.88,3.46-7.54,7.13-11,11-5.73,8.6-10.06,18.62-15.5,27.51-14.29,4.83-22.81,10.76-33.51,19-3.42,2.63-8.21,4.54-10,7.5-3.07,5.06-2.6,13.89-5.5,20.01-1.13,2.38-7.93,10.95-10,11.5-5.07,1.35-12.44-1.07-18.5-1.5-6.21-.44-12.35-.84-19.01-1-15.92-17.59-23.06-43.96-35.51-65.02-7.06-1.47-12.77-6.46-21-8.5-14.41-3.58-30.96-1.9-40.01-9.5.28-6.22,1.23-11.77,2-17.5,5.32-1.52,10.01-3.66,15-5.5,1.96-7.63,7.68-12.84,8.5-20.51,1.56-14.54-5.06-26.02-9-36.51-2.35-6.26-5.5-12.85-7.5-19.51-5.58-18.59-7.58-37.96-14-53.51-4.84-3.49-10.78-5.89-14.5-10.5,6.55-1.8,13.17.95,18-1,6.16-2.48,6.54-11.95,11.5-15.5Z"/>
      <path id="Seongdong-gu" class="cls-2" d="M836.69,575.38h6.5c5.32-3.18,4.22-12.78,14.5-11,.69,1.14,3.48.19,5,.5,9.43-.09,18.04.63,27.01,1,2.55,7.28,4.74,14.93,7,22.51,24.57,8.6,50.19,16.15,73.02,26.51-4.56,27.31-8.41,49.53-20.51,68.52-4.11,6.45-11.86,11.41-14,18-1.69,5.2-.71,11.03-1.5,16-1.45,9.09-4.73,16.92-6.5,26.01-21.14-10.75-42.32-26.77-69.52-33.01-5.61-1.29-13.54-1.09-20.51-1.5-20.39-1.2-34.92.93-52.51,5-3.93-15.58-7.85-31.16-12-46.51,6.35-10.32,10.54-22.8,16.5-33.51,2.71-2.29,5.21-4.79,7.5-7.5,2.88-2.46,5.54-5.12,8-8,5.99-5.18,8.69-13.65,13-20.5,1.16-1.68.18-5.49.5-8v-8.5c1.15-1.18.18-4.49.5-6.5v-7.5c4.82,2.01,6.01,7.66,13,7.5.69,1.14,3.48.19,5,.5Z"/>
      <path id="Songpa-gu" class="cls-2" d="M1104.25,682.41c3.29,2.54,5.45,6.22,8,9.5,3.91.42,8.02.65,12.5.5,6.39,10.43.72,26.42-3.5,37.51-1.51,3.96-4.91,9.19-4.5,12,.85,5.78,13.67,9.94,16,15,4.35,8.15,6.88,18.12,12,25.51,5.99,2.01,14.32,1.68,21.51,2.5,5.8,5.87,12.44,10.9,23.5,11.5-2.81,6.31-6.54,11.02-10.5,17.5-2.29,3.74-10.2,13.9-9.5,19,.59,4.26,7.21,5.05,8.5,10,1.48,5.67-1.05,8.27,0,15.5,10.06,14.61,33.9,15.45,51.51,22.51,2.18,1.16,6.5.17,9.5.5,1.16,3.51.17,9.17.5,13.5-11.89,3.55-17.79,8.66-21,20.51-2.31,8.5-1.09,19.41-4,27.51-2.27,6.33-7.36,9.61-10,14.5-5.82,2.69-12.55,1.39-16.5,5-2.09,1.92-5.46,12.25-7,17.5-1.12,3.83,1.19,8.83.5,12-.81,3.74-5.06,5.75-7,8-2.51.32-6.32-.66-8,.5-7.41.8-13.5-1.39-18,1-3.67,1.95-5.51,9.67-7.5,14-2.64,5.73-4.68,10.65-7,14.5-5.92-14.55-13.6-28.17-22.01-40.51-2.87-4.21-7.07-8.27-8.5-12.5-3.8-11.22-2.22-24.07-6.5-36.51-9.46-7.21-20.56-12.78-30.01-20.01-1.47-4.37-2.53-9.14-4-13.5-2.79-3.21-5.79-6.21-9-9-13.09-4.03-29.4-3.43-41.51-7.5-4.1-1.38-8.61-4.79-13-7-10.03-5.04-16.2-8.3-24.01-14.5-3.42-2.72-8.02-5.85-10-8.5-4.14-5.52-5.58-12.74-9.5-19.51-.32-2.18.65-5.65-.5-7v-18.51c-.32-1.85.65-4.98-.5-6v-19.01c-.32-1.85.65-4.98-.5-6v-2.5c3.81.69,7.26,1.74,12,1.5h17c1.52-.31,4.31.64,5-.5h13.5c1.68-.32,4.65.65,5.5-.5,8.6-2.13,18.39-2.59,27.01-6,7.65-3.02,11.23-8.84,16-15,8.34-10.77,16.42-21.13,24.51-31.51,5.5-7.06,12.07-13.74,16-21,4.9-9.04,8.53-18.69,13-26.51Z"/>
      <path id="Yangcheon-gu" class="cls-2" d="M161.53,678.41c2.8-5.03,4.87-10.8,8.5-15,6.63.69,11.92-2.63,17-1.5,2.33.52,7.23,5.06,8.5,7,1.99,3.04,3.1,8.01,5,12.5,4.9,11.56,11.81,26.59,15.5,37.01,6.61,6.65,15.02,9.53,27.01,12,5.24,1.08,10.65,2.89,15,2.5,10.12-.9,18.73-8.26,27.01-10.5,2.18-9.44,12.68-18.48,15-27.01,2.68-9.84-.56-21.72,2-30.51,1.62-5.56,5.63-8.43,8.5-13,6.39.45,10.83,2.84,16,4.5,5.52,1.48,14.48-.48,20,1,6.59,12.13,10.03,26.04,16.5,38.01,1.72,3.18,5.4,5.82,6.5,9.5,1.72,5.76-.14,11.56,1.5,17.5-8.8,8.38-18.91,15.43-27.51,24.01v15c-1.16,4.17-.17,10.5-.5,15.5v25.01c-2.25,12.42-8.86,20.48-13,31.01-.76,1.24-4.31-.31-5,1-14.25.54-29.9,2.87-38.01-4.5-2.65-7.19-4.85-14.82-7.5-22.01-4.34-.83-9.2-1.14-14.5-1-.86-1.15-3.82-.18-5.5-.5h-7.5c-10.92,8.75-19.83,19.52-32.01,27.01h-12.5c-2.34.32-5.99-.65-7.5.5h-6c-1.75-5.42-3.63-10.71-6-15.5-9.49-1.85-19.23-3.44-29.01-5,1.96-7.55,11.31-18.92,12.5-27.01,1.75-11.88,0-27.83,0-43.01s2.14-31.8,0-43.51c-1.58-8.66-8.7-15.07-10-21.01Z"/>
      <path id="Yeongdeungpo-gu" class="cls-2" d="M347.58,746.92c3.91-3.2,8.26-7.18,13.5-11.5,3.55-2.92,11.85-7.63,13-12,1.55-5.85-1.96-11.69-1-19.51-7.13-8.82-10.49-18.87-15.5-30.51-4.99-11.58-10.96-20.34-10.5-36.01,12.59,8.73,21.89,21.76,35.01,30.51,6.31,4.21,14.33,6.89,21.51,10.5,21.06,10.59,42.68,22.49,66.52,29.51,4.15,20.02,4.89,40.5,12.5,56.01,5.41,11.03,16.12,15.75,25.51,22.51v.5c-9.93,15.57-19.52,31.49-27.01,49.51.1,21.1-4.12,37.89-11,52.01-9.29,2.55-22.56,2.56-30.51,6.5-2.95,1.46-13.39,10.81-14.5,13.5-3.05,7.36-.55,17.23-4,26.01-2.52.15-3.95,1.38-6,2-6.94-4.23-13.5-8.84-20-13.5v-3.5c-.32-1.69.64-4.65-.5-5.5v-8c-.32-1.68.64-4.65-.5-5.5v-8.5c-.32-1.68.64-4.65-.5-5.5,2.55-10.95-5.78-12.45-8-19.01-2.36-6.98-2.02-15.57-4-23.51-1.95-7.82-3.79-15.31-5.5-22.51-9.45-5.89-19.48-11.19-29.01-17v-47.51c1.16-2.34.17-6.83.5-10ZM559.62,774.43c-20.86-23.65-42.33-46.69-74.02-59.51,2.07,15.44,4.54,30.46,9.5,43.01,5.7,5.11,13,14.7,21,17,10.17,2.93,21.25.72,34.01,1,1.74-1.7,10.18.98,9.5-1.5Z"/>
      <path id="Yongsan-gu" class="cls-2" d="M699.16,641.4c8.66,5.81,11.73,17.15,28.51,14.5,1.02,1.15,4.15.18,6,.5h9c1.02,1.15,4.15.18,6,.5,8.14,3.2,14.72,7.96,21.5,12.5,2.97,15.71,8.66,31.34,11,46.01-17.62,10.85-33.22,28.17-48.51,45.01-11.59,12.76-23.23,22.86-35.51,34.51-7.42,7.04-10.86,11.92-22.01,13-12.89,1.25-36.42,1.67-46.01-2-5.8-2.22-10.82-9.58-15-14.5-4.79-5.63-9.42-10.62-13.5-16-2.03-3.47-5.16-5.84-8-8.5-2.19-.65-3.14-2.52-4.5-4-1.96-2.38-4.12-4.54-6.5-6.5-1.79-2.21-3.79-4.21-6-6-5.49-5.35-10.37-11.3-15.5-17,25.86-24.98,53.6-48.09,62.51-90.02,13.82-.68,26.5-2.51,40.51-3h8.5c2.34-.32,5.99.65,7.5-.5h10c3.58.25,8.55-.89,10,1.5Z"/>
    </g>
  </g>
</svg>